HIERARCHY
ROOT Hips
{
	OFFSET -0.001795 -0.223333 0.028219
	CHANNELS 6 Xposition Yposition Zposition Zrotation Yrotation Xrotation 
	JOINT LeftUpLeg
	{
		OFFSET 0.069520 -0.091406 -0.006815
		CHANNELS 3 Zrotation Yrotation Xrotation
		JOINT LeftLeg
		{
			OFFSET 0.034277 -0.375199 -0.004496
			CHANNELS 3 Zrotation Yrotation Xrotation
			JOINT LeftFoot
			{
				OFFSET -0.013596 -0.397961 -0.043693
				CHANNELS 3 Zrotation Yrotation Xrotation
				JOINT LeftToe
				{
					OFFSET 0.026358 -0.055791 0.119288
					CHANNELS 3 Zrotation Yrotation Xrotation
					End Site
					{
						OFFSET 0.000000 0.000000 0.000000
					}
				}
			}
		}
	}
	JOINT RightUpLeg
	{
		OFFSET -0.067670 -0.090522 -0.004320
		CHANNELS 3 Zrotation Yrotation Xrotation
		JOINT RightLeg
		{
			OFFSET -0.038290 -0.382569 -0.008850
			CHANNELS 3 Zrotation Yrotation Xrotation
			JOINT RightFoot
			{
				OFFSET 0.015774 -0.398415 -0.042312
				CHANNELS 3 Zrotation Yrotation Xrotation
				JOINT RightToe
				{
					OFFSET -0.025372 -0.048144 0.123348
					CHANNELS 3 Zrotation Yrotation Xrotation
					End Site
					{
						OFFSET 0.000000 0.000000 0.000000
					}
				}
			}
		}
	}
	JOINT Spine
	{
		OFFSET -0.002533 0.108963 -0.026696
		CHANNELS 3 Zrotation Yrotation Xrotation
		JOINT Spine1
		{
			OFFSET 0.005487 0.135180 0.001092
			CHANNELS 3 Zrotation Yrotation Xrotation
			JOINT Spine2
			{
				OFFSET 0.001457 0.052922 0.025425
				CHANNELS 3 Zrotation Yrotation Xrotation
				JOINT Neck
				{
					OFFSET -0.002778 0.213870 -0.042857
					CHANNELS 3 Zrotation Yrotation Xrotation
					JOINT Head
					{
						OFFSET 0.005152 0.064970 0.051349
						CHANNELS 3 Zrotation Yrotation Xrotation
						End Site
						{
							OFFSET 0.000000 0.000000 0.000000
						}
					}
				}
				JOINT LeftShoulder
				{
					OFFSET 0.078845 0.121749 -0.034090
					CHANNELS 3 Zrotation Yrotation Xrotation
					JOINT LeftArm
					{
						OFFSET 0.090977 0.030469 -0.008868
						CHANNELS 3 Zrotation Yrotation Xrotation
						JOINT LeftForeArm
						{
							OFFSET 0.259612 -0.012772 -0.027456
							CHANNELS 3 Zrotation Yrotation Xrotation
							JOINT LeftHand
							{
								OFFSET 0.249234 0.008986 -0.001171
								CHANNELS 3 Zrotation Yrotation Xrotation
								End Site
								{
									OFFSET 0.000000 0.000000 0.000000
								}
							}
						}
					}
				}
				JOINT RightShoulder
				{
					OFFSET -0.081759 0.118833 -0.038615
					CHANNELS 3 Zrotation Yrotation Xrotation
					JOINT RightArm
					{
						OFFSET -0.096012 0.032551 -0.009143
						CHANNELS 3 Zrotation Yrotation Xrotation
						JOINT RightForeArm
						{
							OFFSET -0.253742 -0.013329 -0.021401
							CHANNELS 3 Zrotation Yrotation Xrotation
							JOINT RightHand
							{
								OFFSET -0.255298 0.007772 -0.005559
								CHANNELS 3 Zrotation Yrotation Xrotation
								End Site
								{
									OFFSET 0.000000 0.000000 0.000000
								}
							}
						}
					}
				}
			}
		}
	}
}
MOTION
Frames: 7
Frame Time: 0.050000
0.000000 0.946394 0.000000 -2.862086 15.416250 8.555623 14.204329 -0.805859 -15.028126 -7.160898 0.500568 1.409880 5.133975 14.462139 12.880710 0.000000 0.000000 0.000000 -8.371572 0.207487 -13.932870 1.822901 -0.222454 6.105137 -6.717519 -15.520689 15.329354 0.000000 0.000000 0.000000 -1.515816 -1.591329 24.650664 3.985395 -0.142840 -21.759795 0.485483 -2.808127 24.672911 -5.396075 5.260036 -35.103775 0.000000 0.000000 0.000000 -27.432177 -21.213457 9.588717 -39.348899 -34.816669 5.033545 2.746578 -19.115221 0.287253 0.000000 0.000000 0.000000 18.237990 26.894011 15.378803 36.793398 38.510087 5.714428 -5.375788 18.267551 -0.140512 0.000000 0.000000 0.000000 
0.020687 0.946080 -0.001008 -3.267477 12.819755 7.983603 13.501446 -0.685695 -12.340069 -6.517237 0.454097 -1.093195 6.734704 16.702235 13.965160 0.000000 0.000000 0.000000 -10.316509 0.047319 -13.896544 4.228232 -0.641124 5.795507 -7.004570 -16.465560 14.638588 0.000000 0.000000 0.000000 -2.262667 -1.237519 24.428890 4.144882 -0.207435 -22.466318 0.657855 -1.618950 25.168906 -4.959320 5.019986 -36.649021 0.000000 0.000000 0.000000 -28.149995 -18.900749 8.229502 -39.159276 -34.484917 4.821396 -0.464923 -21.967470 0.945615 0.000000 0.000000 0.000000 17.640413 27.614264 15.539918 39.043490 39.693909 6.709898 -6.874923 18.536434 -0.319217 0.000000 0.000000 0.000000 
0.039555 0.946921 -0.002331 -3.515348 11.265362 6.992776 12.283110 -0.623244 -11.139971 -6.104660 0.454412 -1.115677 6.920288 16.798289 13.765091 0.000000 0.000000 0.000000 -10.567207 0.066412 -13.610228 3.783360 -0.543305 6.544957 -6.406535 -15.562086 17.909246 0.000000 0.000000 0.000000 -1.858443 -1.246288 24.324258 3.297804 -0.029411 -22.482584 0.754956 -1.044829 25.163415 -4.609814 4.873897 -35.231393 0.000000 0.000000 0.000000 -27.622934 -19.101108 8.460561 -39.821482 -36.236982 5.498480 0.119053 -20.729035 0.793603 0.000000 0.000000 0.000000 16.309822 27.125124 14.712508 40.612871 40.407997 7.540844 -8.077954 19.332874 -0.510731 0.000000 0.000000 0.000000 
0.055137 0.947347 -0.003601 -3.903708 9.940729 6.100846 11.360570 -0.569628 -9.577794 -5.875961 0.447059 -1.822140 7.210722 16.874952 12.300841 0.000000 0.000000 0.000000 -11.609490 -0.000023 -12.499936 3.730136 -0.500323 5.640448 -6.526488 -15.969213 19.930599 0.000000 0.000000 0.000000 -2.429894 -1.018023 24.020554 3.378574 -0.080045 -22.462853 1.077542 -0.885076 24.861879 -4.652528 4.824331 -34.543564 0.000000 0.000000 0.000000 -27.666292 -19.117371 8.673410 -39.408974 -35.087924 5.032456 -0.056756 -22.228536 0.888141 0.000000 0.000000 0.000000 14.113996 28.083214 14.332335 42.306402 41.084175 8.523385 -10.490445 18.142120 -0.802108 0.000000 0.000000 0.000000 
0.067250 0.948858 -0.004873 -3.996421 10.173743 5.231833 10.677733 -0.559015 -8.311198 -6.316728 0.462763 -2.138442 7.108279 16.713238 12.300339 0.000000 0.000000 0.000000 -11.791015 -0.034676 -11.408357 3.858537 -0.533491 6.009002 -7.548109 -17.516490 22.141804 0.000000 0.000000 0.000000 -2.271683 -1.082136 24.113863 3.460127 -0.098845 -22.599698 1.181514 -0.621766 24.536905 -4.648127 4.892293 -33.761074 0.000000 0.000000 0.000000 -27.350048 -19.610905 8.760623 -40.203507 -35.247555 5.354100 0.213232 -23.411887 0.872475 0.000000 0.000000 0.000000 12.756691 27.115819 13.488705 44.010978 41.438523 9.339328 -12.386523 17.700243 -1.002924 0.000000 0.000000 0.000000 
0.075488 0.950093 -0.006236 -4.023645 9.767255 4.654582 10.890127 -0.529166 -7.569530 -6.694345 0.493055 -2.123201 7.402402 17.041478 11.884586 0.000000 0.000000 0.000000 -11.760478 -0.014427 -10.569323 4.196909 -0.598011 6.490130 -7.158286 -17.011096 21.606152 0.000000 0.000000 0.000000 -2.366188 -1.006394 23.655364 3.427979 -0.068459 -23.292808 1.110252 -1.045319 24.749712 -3.106620 4.083831 -33.175678 0.000000 0.000000 0.000000 -26.499309 -19.623960 8.951089 -40.238641 -35.095633 5.201530 0.524879 -23.620192 0.824249 0.000000 0.000000 0.000000 12.824549 27.206037 13.381360 43.368558 41.285221 9.033375 -12.702191 17.475915 -1.033725 0.000000 0.000000 0.000000 
0.080016 0.951317 -0.007817 -4.162778 9.418729 3.927858 10.512599 -0.499996 -6.650396 -6.441810 0.485348 -2.122808 7.281939 16.829558 11.889854 0.000000 0.000000 0.000000 -11.271643 0.042337 -9.586647 4.124872 -0.579891 6.566454 -7.521055 -17.642150 21.585571 0.000000 0.000000 0.000000 -2.385759 -0.950159 23.067597 3.725639 -0.162756 -23.106087 0.730126 -1.110518 24.344767 -2.484315 3.745949 -32.674685 0.000000 0.000000 0.000000 -25.371240 -19.099848 8.582934 -41.338040 -34.785781 5.328407 1.526810 -24.246248 0.641966 0.000000 0.000000 0.000000 12.230615 26.745293 12.904785 45.048394 41.017455 9.533446 -13.718398 17.156002 -1.118387 0.000000 0.000000 0.000000 
